<svg width="19" height="19" viewBox="0 0 19 19" fill="none" xmlns="http://www.w3.org/2000/svg">
<path fill-rule="evenodd" clip-rule="evenodd" d="M13.7453 4.45745C13.826 4.37818 13.8901 4.28406 13.9338 4.18048C13.9775 4.07689 14 3.96587 14 3.85376C14 3.74164 13.9775 3.63062 13.9338 3.52704C13.8901 3.42346 13.826 3.32934 13.7453 3.25006C13.6645 3.17078 13.5687 3.10789 13.4632 3.06499C13.3576 3.02208 13.2446 3 13.1303 3C13.0161 3 12.9031 3.02208 12.7975 3.06499C12.692 3.10789 12.5962 3.17078 12.5154 3.25006L6.25476 9.3963C6.17399 9.47557 6.10992 9.56969 6.06621 9.67327C6.0225 9.77686 6 9.88788 6 10C6 10.1121 6.0225 10.2231 6.06621 10.3267C6.10992 10.4303 6.17399 10.5244 6.25476 10.6037L12.5154 16.7499C12.5962 16.8292 12.692 16.8921 12.7975 16.935C12.9031 16.9779 13.0161 17 13.1303 17C13.2446 17 13.3576 16.9779 13.4632 16.935C13.5687 16.8921 13.6645 16.8292 13.7453 16.7499C13.826 16.6707 13.8901 16.5765 13.9338 16.473C13.9775 16.3694 14 16.2584 14 16.1462C14 16.0341 13.9775 15.9231 13.9338 15.8195C13.8901 15.7159 13.826 15.6218 13.7453 15.5425L8.09957 10L13.7453 4.45745Z" fill="#C4C3C3"/>
<path d="M13.9338 4.18048C13.8901 4.28406 13.826 4.37818 13.7453 4.45745L8.09957 10L13.7453 15.5425C13.826 15.6218 13.8901 15.7159 13.9338 15.8195C13.9775 15.9231 14 16.0341 14 16.1462C14 16.2584 13.9775 16.3694 13.9338 16.473C13.8901 16.5765 13.826 16.6707 13.7453 16.7499C13.6645 16.8292 13.5687 16.8921 13.4632 16.935C13.3576 16.9779 13.2446 17 13.1303 17C13.0161 17 12.9031 16.9779 12.7975 16.935C12.692 16.8921 12.5962 16.8292 12.5154 16.7499L6.25476 10.6037C6.17399 10.5244 6.10992 10.4303 6.06621 10.3267C6.0225 10.2231 6 10.1121 6 10C6 9.88788 6.0225 9.77686 6.06621 9.67327C6.10992 9.56969 6.17399 9.47557 6.25476 9.3963L12.5154 3.25006C12.5962 3.17078 12.692 3.10789 12.7975 3.06499C12.9031 3.02208 13.0161 3 13.1303 3C13.2446 3 13.3576 3.02208 13.4632 3.06499C13.5687 3.10789 13.6645 3.17078 13.7453 3.25006C13.826 3.32934 13.8901 3.42346 13.9338 3.52704C13.9775 3.63062 14 3.74164 14 3.85376C14 3.96587 13.9775 4.07689 13.9338 4.18048Z" fill="#C4C3C3"/>
</svg>
