<svg width="19" height="19" viewBox="0 0 19 19" fill="none" xmlns="http://www.w3.org/2000/svg">
<path fill-rule="evenodd" clip-rule="evenodd" d="M6.25471 4.45745C6.17396 4.37818 6.1099 4.28406 6.0662 4.18048C6.02249 4.07689 6 3.96587 6 3.85376C6 3.74164 6.02249 3.63062 6.0662 3.52704C6.1099 3.42346 6.17396 3.32934 6.25471 3.25006C6.33547 3.17078 6.43134 3.10789 6.53685 3.06499C6.64236 3.02208 6.75545 3 6.86965 3C6.98385 3 7.09694 3.02208 7.20245 3.06499C7.30796 3.10789 7.40383 3.17078 7.48459 3.25006L13.7452 9.3963C13.826 9.47557 13.8901 9.56969 13.9338 9.67327C13.9775 9.77686 14 9.88788 14 10C14 10.1121 13.9775 10.2231 13.9338 10.3267C13.8901 10.4303 13.826 10.5244 13.7452 10.6037L7.48459 16.7499C7.40383 16.8292 7.30796 16.8921 7.20245 16.935C7.09694 16.9779 6.98385 17 6.86965 17C6.75545 17 6.64236 16.9779 6.53685 16.935C6.43134 16.8921 6.33547 16.8292 6.25471 16.7499C6.17396 16.6707 6.1099 16.5765 6.0662 16.473C6.02249 16.3694 6 16.2584 6 16.1462C6 16.0341 6.02249 15.9231 6.0662 15.8195C6.1099 15.7159 6.17396 15.6218 6.25471 15.5425L11.9004 10L6.25471 4.45745Z" fill="#C4C3C3"/>
<path d="M6.0662 4.18048C6.1099 4.28406 6.17396 4.37818 6.25471 4.45745L11.9004 10L6.25471 15.5425C6.17396 15.6218 6.1099 15.7159 6.0662 15.8195C6.02249 15.9231 6 16.0341 6 16.1462C6 16.2584 6.02249 16.3694 6.0662 16.473C6.1099 16.5765 6.17396 16.6707 6.25471 16.7499C6.33547 16.8292 6.43134 16.8921 6.53685 16.935C6.64236 16.9779 6.75545 17 6.86965 17C6.98385 17 7.09694 16.9779 7.20245 16.935C7.30796 16.8921 7.40383 16.8292 7.48459 16.7499L13.7452 10.6037C13.826 10.5244 13.8901 10.4303 13.9338 10.3267C13.9775 10.2231 14 10.1121 14 10C14 9.88788 13.9775 9.77686 13.9338 9.67327C13.8901 9.56969 13.826 9.47557 13.7452 9.3963L7.48459 3.25006C7.40383 3.17078 7.30796 3.10789 7.20245 3.06499C7.09694 3.02208 6.98385 3 6.86965 3C6.75545 3 6.64236 3.02208 6.53685 3.06499C6.43134 3.10789 6.33547 3.17078 6.25471 3.25006C6.17396 3.32934 6.1099 3.42346 6.0662 3.52704C6.02249 3.63062 6 3.74164 6 3.85376C6 3.96587 6.02249 4.07689 6.0662 4.18048Z" fill="#C4C3C3"/>
</svg>
